HIERARCHY
ROOT Hips
{
    OFFSET 0.000000 0.000000 0.000000
    CHANNELS 6 Xposition Yposition Zposition Zrotation Xrotation Yrotation
    JOINT Spine
    {
        OFFSET -0.000000 14.517291 0.000000
        CHANNELS 3 Zrotation Xrotation Yrotation
        JOINT Spine1
        {
            OFFSET -0.000000 37.558300 0.000000
            CHANNELS 3 Zrotation Xrotation Yrotation
            JOINT Neck
            {
                OFFSET -0.000000 37.404057 3.400369
                CHANNELS 3 Zrotation Xrotation Yrotation
                JOINT Head
                {
                    OFFSET -0.000000 24.785618 -3.540803
                    CHANNELS 3 Zrotation Xrotation Yrotation
                    End Site
                    {
                        OFFSET -0.000000 35.408028 0.000000
                    }
                }
            }
            JOINT LeftShoulder
            {
                OFFSET 6.992933 33.973492 -0.192664
                CHANNELS 3 Zrotation Xrotation Yrotation
                JOINT LeftArm
                {
                    OFFSET 21.527611 0.000000 0.000000
                    CHANNELS 3 Zrotation Xrotation Yrotation
                    JOINT LeftForeArm
                    {
                        OFFSET 56.353916 0.000000 0.000000
                        CHANNELS 3 Zrotation Xrotation Yrotation
                        JOINT LeftHand
                        {
                            OFFSET 47.774071 0.000000 0.000000
                            CHANNELS 3 Zrotation Xrotation Yrotation
                            End Site
                            {
                                OFFSET 26.556021 0.000000 0.000000
                            }
                        }
                    }
                }
            }
            JOINT RightShoulder
            {
                OFFSET -7.065357 33.973492 -0.192664
                CHANNELS 3 Zrotation Xrotation Yrotation
                JOINT RightArm
                {
                    OFFSET -21.527611 0.000000 0.000000
                    CHANNELS 3 Zrotation Xrotation Yrotation
                    JOINT RightForeArm
                    {
                        OFFSET -56.353916 0.000000 0.000000
                        CHANNELS 3 Zrotation Xrotation Yrotation
                        JOINT RightHand
                        {
                            OFFSET -47.774071 0.000000 0.000000
                            CHANNELS 3 Zrotation Xrotation Yrotation
                            End Site
                            {
                                OFFSET -26.556021 0.000000 0.000000
                            }
                        }
                    }
                }
            }
        }
    }
    JOINT LeftUpLeg
    {
        OFFSET 17.704014 0.000000 0.000000
        CHANNELS 3 Zrotation Xrotation Yrotation
        JOINT LeftLeg
        {
            OFFSET -0.000000 -81.181816 0.000000
            CHANNELS 3 Zrotation Xrotation Yrotation
            JOINT LeftFoot
            {
                OFFSET -0.000000 -62.821102 0.000000
                CHANNELS 3 Zrotation Xrotation Yrotation
                JOINT LeftToeBase
                {
                    OFFSET -0.000000 -11.507608 26.556021
                    CHANNELS 3 Zrotation Xrotation Yrotation
                    End Site
                    {
                        OFFSET -0.000000 0.000000 7.081605
                    }
                }
            }
        }
    }
    JOINT RightUpLeg
    {
        OFFSET -17.704014 0.000000 0.000000
        CHANNELS 3 Zrotation Xrotation Yrotation
        JOINT RightLeg
        {
            OFFSET -0.000000 -81.181816 0.000000
            CHANNELS 3 Zrotation Xrotation Yrotation
            JOINT RightFoot
            {
                OFFSET -0.000000 -62.821102 0.000000
                CHANNELS 3 Zrotation Xrotation Yrotation
                JOINT RightToeBase
                {
                    OFFSET -0.000000 -11.507608 26.556021
                    CHANNELS 3 Zrotation Xrotation Yrotation
                    End Site
                    {
                        OFFSET -0.000000 0.000000 7.081605
                    }
                }
            }
        }
    }
}
MOTION
Frames:    12
Frame Time:    0.008333
-10.371695    151.516129    -6.285425    0.683306    0.736644    22.241938    -3.081915    2.560531    7.632860    -1.710484    -1.551377    2.498341    -1.325906    4.811402    -15.978513    12.630082    -7.229423    -13.957901    2.785919    2.812171    -9.955785    -33.904099    5.936385    -69.096413    9.816069    -53.485363    -114.712799    -15.630083    -41.360603    -18.636032    -0.308783    11.235867    0.633438    37.883602    13.958513    47.465141    -39.264633    -33.205502    44.516930    12.265908    -14.578843    32.995743    -1.421484    -33.610859    -27.134272    -14.911745    30.155708    -19.469154    -3.868123    -3.007102    30.614300    0.000000    0.000000    0.000000    1.620659    7.372012    -18.424150    4.057655    30.630140    -5.130508    1.600838    -34.178139    -8.054513    0.000000    0.000000    0.000000    
-10.361966    151.507492    -6.300754    0.691581    0.745778    22.251642    -3.078465    2.559083    7.633367    -1.713711    -1.546427    2.498588    -1.345170    4.824501    -15.980519    12.633131    -7.253053    -13.954945    2.770672    2.814745    -9.951880    -33.908207    5.935658    -69.107605    9.841817    -53.501965    -114.682022    -15.626266    -41.359360    -18.623314    -0.332724    11.241854    0.636323    37.888016    13.938072    47.473801    -39.246483    -33.211746    44.523144    12.262527    -14.589664    33.023087    -1.450086    -33.619263    -27.134693    -14.893435    30.157101    -19.494312    -3.852188    -2.982922    30.605862    0.000000    0.000000    0.000000    1.604615    7.346053    -18.424112    4.054826    30.671913    -5.142947    1.628872    -34.200199    -8.048074    0.000000    0.000000    0.000000    
-10.351534    151.498489    -6.314717    0.703128    0.749874    22.255129    -3.070341    2.563164    7.639765    -1.735425    -1.538674    2.500560    -1.338596    4.831258    -15.979631    12.625408    -7.280016    -13.953445    2.774147    2.815446    -9.946027    -33.941841    5.925952    -69.126541    9.841903    -53.482517    -114.668343    -15.617405    -41.339207    -18.620844    -0.330882    11.228013    0.637656    37.893333    13.914434    47.463615    -39.225746    -33.190083    44.539513    12.249508    -14.573281    33.003986    -1.473455    -33.623421    -27.135010    -14.903315    30.157595    -19.467566    -3.811610    -2.951460    30.597874    0.000000    0.000000    0.000000    1.586448    7.324851    -18.423922    4.052175    30.716732    -5.134806    1.597651    -34.223141    -8.081484    0.000000    0.000000    0.000000    
-10.342338    151.486633    -6.326119    0.715777    0.751717    22.259005    -3.071721    2.562018    7.646265    -1.739785    -1.522850    2.502916    -1.334112    4.837845    -15.983169    12.608726    -7.303268    -13.958569    2.768761    2.823649    -9.937116    -33.955715    5.925273    -69.154137    9.858923    -53.488316    -114.639694    -15.614313    -41.332245    -18.626348    -0.330173    11.208809    0.637703    37.862125    13.929166    47.457779    -39.248779    -33.201740    44.507431    12.247128    -14.589082    33.013500    -1.497356    -33.626461    -27.126511    -14.891820    30.164276    -19.498156    -3.806414    -2.938051    30.606575    0.000000    0.000000    0.000000    1.574996    7.312438    -18.445522    4.021992    30.749090    -5.114148    1.614116    -34.258472    -8.073716    0.000000    0.000000    0.000000    
-10.330310    151.476151    -6.336394    0.731638    0.753386    22.271751    -3.075135    2.560769    7.648855    -1.736811    -1.511322    2.503971    -1.344674    4.852736    -15.981948    12.602237    -7.328741    -13.954902    2.750917    2.827398    -9.938992    -33.958931    5.929775    -69.163605    9.879898    -53.506390    -114.611008    -15.601943    -41.338737    -18.619444    -0.343880    11.212543    0.640467    37.869019    13.891390    47.455864    -39.224285    -33.185436    44.517517    12.237571    -14.579309    33.019539    -1.533516    -33.627846    -27.136116    -14.882133    30.175266    -19.530716    -3.797652    -2.928570    30.632589    0.000000    0.000000    0.000000    1.554870    7.306207    -18.462490    4.015907    30.776503    -5.135797    1.647641    -34.285553    -8.037632    0.000000    0.000000    0.000000    
-10.320154    151.464813    -6.343328    0.749808    0.751719    22.285006    -3.077883    2.561791    7.649317    -1.739850    -1.498496    2.504234    -1.339108    4.857080    -15.981594    12.577551    -7.342495    -13.958700    2.734299    2.837349    -9.935632    -33.967140    5.927936    -69.180351    9.908659    -53.524082    -114.573860    -15.630198    -41.329937    -18.633326    -0.347176    11.205989    0.645873    37.877869    13.860924    47.443256    -39.202873    -33.161148    44.529530    12.235564    -14.557833    33.009041    -1.564713    -33.620274    -27.146101    -14.882143    30.174246    -19.547918    -3.760033    -2.913363    30.643696    0.000000    0.000000    0.000000    1.538904    7.306149    -18.480141    3.999699    30.799585    -5.125962    1.636041    -34.313007    -8.041516    0.000000    0.000000    0.000000    
-10.309572    151.455429    -6.349663    0.765931    0.755274    22.301840    -3.085972    2.549372    7.647407    -1.729144    -1.475236    2.504161    -1.365416    4.876388    -15.985401    12.596897    -7.365269    -13.953773    2.717664    2.846691    -9.929398    -33.985786    5.925478    -69.201714    9.931186    -53.533298    -114.542191    -15.639497    -41.319637    -18.643881    -0.355351    11.197880    0.643128    37.869019    13.858319    47.447319    -39.213150    -33.158470    44.511047    12.247354    -14.554667    33.004765    -1.600935    -33.619850    -27.171921    -14.880348    30.176004    -19.557590    -3.751564    -2.903809    30.657179    0.000000    0.000000    0.000000    1.510749    7.267541    -18.493414    3.873643    30.841557    -4.894008    1.786254    -34.292130    -7.987678    0.000000    0.000000    0.000000    
-10.298706    151.449066    -6.355687    0.783715    0.756345    22.321857    -3.087536    2.542476    7.643038    -1.733746    -1.455655    2.502967    -1.360159    4.864134    -15.982220    12.575832    -7.352430    -13.956493    2.708495    2.866428    -9.922698    -33.992752    5.922595    -69.224266    9.937943    -53.545567    -114.529411    -15.626173    -41.333603    -18.625988    -0.350312    11.191259    0.638524    37.871082    13.838181    47.444008    -39.194679    -33.149658    44.518318    12.268321    -14.543776    33.005123    -1.640260    -33.613647    -27.191975    -14.869724    30.172520    -19.585287    -3.753325    -2.900087    30.685713    0.000000    0.000000    0.000000    1.506420    7.308594    -18.505629    3.979048    30.828262    -5.110092    1.682555    -34.361607    -8.029289    0.000000    0.000000    0.000000    
-10.292034    151.446228    -6.358740    0.795858    0.759163    22.350214    -3.092897    2.529777    7.633989    -1.725629    -1.439464    2.500385    -1.366394    4.868700    -15.981744    12.562876    -7.349195    -13.958350    2.698416    2.879965    -9.926117    -34.006290    5.926451    -69.226257    9.959616    -53.560394    -114.508354    -15.630020    -41.330688    -18.626217    -0.350656    11.194304    0.638195    37.861023    13.843067    47.449821    -39.223881    -33.163433    44.478264    12.271606    -14.559673    33.024525    -1.678930    -33.607544    -27.229563    -14.858655    30.162437    -19.569153    -3.738036    -2.875921    30.668600    0.000000    0.000000    0.000000    1.485928    7.273218    -18.521154    3.854582    30.860653    -4.868675    1.791186    -34.333244    -7.999840    0.000000    0.000000    0.000000    
-10.285696    151.443375    -6.362633    0.806756    0.760650    22.376991    -3.093236    2.519195    7.628168    -1.722967    -1.423997    2.498788    -1.366225    4.865280    -15.980258    12.554003    -7.338983    -13.959661    2.687026    2.888707    -9.932940    -34.011372    5.939369    -69.224449    9.986738    -53.580761    -114.480782    -15.653563    -41.326469    -18.635084    -0.357352    11.192465    0.636446    37.878407    13.837770    47.439014    -39.226292    -33.161636    44.476616    12.279981    -14.557343    33.001907    -1.710441    -33.601761    -27.259743    -14.850628    30.150078    -19.597889    -3.753697    -2.873392    30.696482    0.000000    0.000000    0.000000    1.478201    7.277624    -18.548080    3.849690    30.862143    -4.855892    1.790002    -34.335243    -8.007464    0.000000    0.000000    0.000000    
-10.280611    151.445694    -6.364837    0.811755    0.764262    22.404333    -3.086103    2.505844    7.622419    -1.739027    -1.422115    2.496882    -1.344219    4.889616    -15.983094    12.548102    -7.344357    -13.965874    2.707643    2.917304    -9.934120    -34.040691    5.939743    -69.236931    9.979856    -53.564560    -114.482193    -15.629964    -41.320541    -18.600008    -0.332906    11.189860    0.640736    37.879898    13.841516    47.416065    -39.248493    -33.157475    44.452087    12.270891    -14.556871    32.986092    -1.735387    -33.598106    -27.297874    -14.857787    30.132130    -19.575586    -3.743838    -2.847388    30.695951    0.000000    0.000000    0.000000    1.483840    7.284459    -18.573521    3.759070    30.851500    -4.686089    1.855226    -34.337250    -8.016156    0.000000    0.000000    0.000000    
-10.275807    151.446747    -6.367491    0.816774    0.761503    22.430920    -3.081125    2.498504    7.613336    -1.730163    -1.396499    2.494438    -1.330874    4.906089    -15.909563    12.508412    -7.417625    -13.890621    2.689828    2.906486    -9.921692    -34.042534    5.969592    -69.229736    9.978752    -53.564568    -114.489525    -15.628936    -41.322906    -18.577673    -0.341732    11.187480    0.613550    37.890656    13.854528    47.443398    -39.257450    -33.159996    44.444977    12.257412    -14.564692    32.966904    -1.759550    -33.588516    -27.322798    -14.846689    30.119598    -19.581461    -3.745477    -2.839803    30.699968    0.000000    0.000000    0.000000    1.481997    7.285742    -18.566267    3.852279    30.853529    -4.852812    1.783702    -34.336128    -8.066690    0.000000    0.000000    0.000000    
